<mxfile host="app.diagrams.net" modified="2023-10-24T07:26:05.910Z" agent="Mozilla/5.0 (Macintosh; Intel Mac OS X 10_15_7) AppleWebKit/605.1.15 (KHTML, like Gecko) Version/17.0 Safari/605.1.15" version="22.0.6" etag="sL9Uv-efvFdYWvaIv_cZ" type="github">
  <diagram name="Page-1" id="mAW6w7WBJ3kH8a0hMK1T">
    <mxGraphModel>
      <root>
        <mxCell id="0" />
        <mxCell id="1" parent="0" />
      </root>
    </mxGraphModel>
  </diagram>
</mxfile>
